<svg xmlns="http://www.w3.org/2000/svg" xmlns:xlink="http://www.w3.org/1999/xlink" viewBox="0 0 500 500">
  <defs>
    <style>
      .cls-1 {
        fill: url(#linear-gradient);
      }

      .cls-2 {
        fill: url(#linear-gradient-2);
      }
    </style>
    <linearGradient id="linear-gradient" x1="267.25007" y1="214.97305" x2="390.48559" y2="286.12311" gradientUnits="userSpaceOnUse">
      <stop offset="0.07469" stop-color="#ed3212"/>
      <stop offset="0.64009" stop-color="#ff3f00"/>
    </linearGradient>
    <linearGradient id="linear-gradient-2" x1="-45.75318" y1="79.24682" x2="545.75318" y2="420.75318" gradientUnits="userSpaceOnUse">
      <stop offset="0.00041" stop-color="#d4202a"/>
      <stop offset="0.20032" stop-color="#db2524"/>
      <stop offset="0.48042" stop-color="#ed3212"/>
      <stop offset="0.6905" stop-color="#ff3f00"/>
      <stop offset="0.99961" stop-color="#ff6e00"/>
    </linearGradient>
  </defs>
  <title>IconSVG</title>
  <g id="Layer_2" data-name="Layer 2">
    <g id="Layer_1-2" data-name="Layer 1">
      <g>
        <path class="cls-1" d="M364.75293,188.37988a70.71154,70.71154,0,0,0-35.28711-9.40137,71.52219,71.52219,0,0,0-61.75488,35.19629,76.34737,76.34737,0,0,0,.01465,72.96191,68.08224,68.08224,0,0,0,25.30371,25.60645,73.39406,73.39406,0,0,0,71.74121-.01172,67.03844,67.03844,0,0,0,25.125-25.60937,77.47464,77.47464,0,0,0,0-72.9707A68.173,68.173,0,0,0,364.75293,188.37988Z"/>
        <path class="cls-2" d="M0,0V500H500V0ZM405.09375,295.10938a82.971,82.971,0,0,1-31.41113,31.41113,92.27278,92.27278,0,0,1-89.07422.00977,82.99075,82.99075,0,0,1-31.42676-31.41895c-1.08887-1.93457-2.11035-3.92383-3.05322-5.94336-.84229,1.75488-1.74268,3.48438-2.69141,5.16895a82.94627,82.94627,0,0,1-31.39551,31.39746,92.23078,92.23078,0,0,1-89.03223.00977,82.95237,82.95237,0,0,1-31.41211-31.4043,92.68168,92.68168,0,0,1-.00244-89.04541,83.03348,83.03348,0,0,1,31.40283-31.39209,92.207,92.207,0,0,1,88.94287-.05225l.6499.29834a8.24171,8.24171,0,1,1-7.36084,14.74854l-.17041-.1001-1.57324-1.0708a71.49819,71.49819,0,0,0-96.95557,25.80322,76.30458,76.30458,0,0,0,.01465,72.92578,68.03512,68.03512,0,0,0,25.29053,25.59375,73.35333,73.35333,0,0,0,71.70557-.0127A66.98,66.98,0,0,0,232.6543,286.4375a73.24427,73.24427,0,0,0,9.123-36.27832l-.01855-1.51855h.02734a89.199,89.199,0,0,1,11.39355-42.61768,83.05473,83.05473,0,0,1,31.417-31.40723,92.24961,92.24961,0,0,1,88.72461-.19434h.01172l.34961.19434a83.10441,83.10441,0,0,1,31.41016,31.40283l.002.00439a92.7283,92.7283,0,0,1-.001,89.08643Z"/>
      </g>
    </g>
  </g>
</svg>
