<svg id="Layer_1" data-name="Layer 1" xmlns="http://www.w3.org/2000/svg" xmlns:xlink="http://www.w3.org/1999/xlink" viewBox="0 0 500 270">
  <defs>
    <style>
      .cls-1 {
        fill: url(#New_Gradient_Swatch_1);
      }
    </style>
    <linearGradient id="New_Gradient_Swatch_1" data-name="New Gradient Swatch 1" x1="7" y1="135.29489" x2="494" y2="135.29489" gradientUnits="userSpaceOnUse">
      <stop offset="0.00041" stop-color="#d4202a"/>
      <stop offset="0.20032" stop-color="#db2524"/>
      <stop offset="0.48042" stop-color="#ed3212"/>
      <stop offset="0.6905" stop-color="#ff3f00"/>
      <stop offset="0.99961" stop-color="#ff6e00"/>
    </linearGradient>
  </defs>
  <title>Artboard 1</title>
  <path class="cls-1" d="M477.28551,70.53168l-.00286-.00644a121.79121,121.79121,0,0,0-46.03222-46.02149l-.51236-.2848h-.01717a135.19368,135.19368,0,0,0-130.02772.2848,121.71839,121.71839,0,0,0-46.04224,46.02793,130.723,130.723,0,0,0-16.69749,62.45707h-.04007l.02719,2.22547a107.341,107.341,0,0,1-13.37,53.16662,98.16049,98.16049,0,0,1-36.804,37.51532,107.50079,107.50079,0,0,1-105.086.01861A99.70685,99.70685,0,0,1,45.61678,188.4066a106.87025,106.87025,0,0,1-13.60472-53.49221,106.68133,106.68133,0,0,1,13.58326-53.382C74.452,32.29076,138.17856,15.33781,187.68567,43.71724l2.30562,1.56928.24974.1467a12.0784,12.0784,0,1,0,10.78746-21.61428l-.95245-.43722a135.1313,135.1313,0,0,0-130.34759.07657A121.68725,121.68725,0,0,0,23.707,69.464,130.56092,130.56092,0,0,0,7.0102,134.918a129.72549,129.72549,0,0,0,16.70035,65.04391,121.56839,121.56839,0,0,0,46.03508,46.02364,135.16608,135.16608,0,0,0,130.47854-.01431,121.55944,121.55944,0,0,0,46.01075-46.01362c1.39038-2.46877,2.70992-5.00338,3.94431-7.57519,1.3818,2.95966,2.8788,5.875,4.47456,8.71011a121.62463,121.62463,0,0,0,46.05655,46.0451,135.22763,135.22763,0,0,0,130.54008-.01431,121.59564,121.59564,0,0,0,46.03365-46.03365,129.82063,129.82063,0,0,0,16.70607-65.02173A130.78767,130.78767,0,0,0,477.28551,70.53168Zm-8.89617,65.40958a108.31824,108.31824,0,0,1-13.3786,53.44283,98.2462,98.2462,0,0,1-36.8212,37.53106,107.56048,107.56048,0,0,1-105.1382.01717,99.77591,99.77591,0,0,1-37.0831-37.52677,106.927,106.927,0,0,1-13.61045-53.51868,106.7324,106.7324,0,0,1,13.589-53.40848,104.81723,104.81723,0,0,1,90.503-51.58088,103.6292,103.6292,0,0,1,51.714,13.77789,99.909,99.909,0,0,1,36.847,37.76863A108.43986,108.43986,0,0,1,468.38934,135.94126Z"/>
</svg>
