<?xml version="1.0" encoding="utf-8"?>
<!-- Generator: Adobe Illustrator 21.1.0, SVG Export Plug-In . SVG Version: 6.00 Build 0)  -->
<svg version="1.1" id="Layer_1" xmlns="http://www.w3.org/2000/svg" xmlns:xlink="http://www.w3.org/1999/xlink" x="0px" y="0px"
	 viewBox="0 0 500 100" style="enable-background:new 0 0 500 100;" xml:space="preserve">
<title>Mono-Black</title>
<path d="M142.3,17.4c-0.3-0.3-0.7-0.4-1.1-0.4c-4.5,0-7.9,1.4-10.1,4.2c-2.2,2.8-3.4,6.7-3.4,11.6V69c0,0.8,0.6,1.5,1.4,1.6
	c0,0,0.1,0,0.1,0c0.4,0,0.9-0.1,1.2-0.4c0.3-0.3,0.5-0.7,0.4-1.1V37.5h9.8c0.7,0,1.4-0.5,1.4-1.3c0-0.7-0.5-1.4-1.3-1.4h0
	c0,0-0.1,0-0.1,0h-9.8v-2c0-3.9,0.8-7.1,2.4-9.4c1.6-2.4,4.3-3.6,7.9-3.6c0.4,0,0.8-0.1,1.1-0.4C142.9,18.8,142.9,18,142.3,17.4
	C142.4,17.4,142.4,17.4,142.3,17.4L142.3,17.4z"/>
<path d="M176.7,61.7c3.3-6,3.3-13.4,0-19.4c-1.6-2.9-4-5.2-6.8-6.8h0c-6-3.3-13.4-3.3-19.4,0c-2.9,1.6-5.2,4-6.8,6.8
	c-3.3,6-3.3,13.4,0,19.4c1.6,2.9,4,5.2,6.8,6.8c6,3.3,13.4,3.3,19.4,0C172.7,66.9,175.1,64.6,176.7,61.7z M168.3,66.1
	c-5,2.8-11.2,2.8-16.2,0c-2.4-1.4-4.4-3.4-5.7-5.8c-2.8-5.1-2.8-11.4,0-16.5c4.5-7.6,14.3-10.2,22-5.8c2.4,1.4,4.4,3.4,5.7,5.8
	c2.8,5.2,2.8,11.3,0,16.5C172.7,62.7,170.7,64.7,168.3,66.1L168.3,66.1z"/>
<path d="M301.4,52c0-3.4-0.8-6.8-2.5-9.7c-1.6-2.9-4-5.2-6.8-6.8c-6-3.3-13.4-3.3-19.4,0c-2.9,1.6-5.2,4-6.8,6.8
	c-3.3,6-3.3,13.4,0,19.4c1.6,2.9,4,5.2,6.8,6.8c3,1.7,6.3,2.5,9.7,2.5c3,0,6-0.7,8.7-2.1c2.5-1.3,4.6-3.3,6.1-5.7l1-1.6V69
	c0,0.4,0.1,0.8,0.4,1.1h0c0.6,0.6,1.6,0.6,2.3,0c0.3-0.3,0.4-0.7,0.4-1.1L301.4,52z M296.2,60.3c-1.3,2.4-3.3,4.4-5.7,5.8
	c-5,2.8-11.2,2.8-16.2,0c-2.4-1.4-4.4-3.4-5.7-5.8c-2.8-5.1-2.8-11.4,0-16.5c4.5-7.6,14.3-10.2,22-5.8c2.4,1.4,4.4,3.4,5.7,5.8
	C299,48.9,299,55.1,296.2,60.3L296.2,60.3z"/>
<path d="M306.3,57.7c0,2.3,0.5,4.6,1.6,6.6c1,1.9,2.6,3.5,4.5,4.6c2,1.1,4.3,1.7,6.6,1.7h1.6c0.4,0,0.9-0.1,1.2-0.4
	c0.3-0.3,0.5-0.7,0.4-1.1c0.1-0.8-0.6-1.6-1.4-1.6c-0.1,0-0.2,0-0.2,0h-1.5c-2.6,0.1-5.1-0.9-6.9-2.7c-1.8-1.9-2.8-4.4-2.7-7V37.5
	h9.8c0.7,0,1.4-0.5,1.4-1.3c0-0.7-0.5-1.4-1.3-1.4c-0.1,0-0.1,0-0.2,0h-9.8v-12c0.1-0.8-0.5-1.6-1.4-1.6c-0.1,0-0.2,0-0.3,0
	c-0.4,0-0.8,0.1-1.1,0.4c-0.3,0.3-0.5,0.8-0.4,1.2L306.3,57.7z"/>
<g>
	<path d="M329.2,18.8c-0.7,0-1.4,0.2-2,0.7c-0.6,0.5-0.8,1.2-0.8,2c0,0.7,0.3,1.4,0.8,2c0.5,0.5,1.2,0.8,1.9,0.8
		c1.5,0,2.7-1.1,2.7-2.6c0,0,0,0,0,0c0,0,0-0.1,0-0.1c0.1-0.7-0.2-1.5-0.8-2C330.6,19.1,329.9,18.8,329.2,18.8z"/>
	<path d="M330.4,70.2L330.4,70.2c0.3-0.3,0.4-0.7,0.4-1.1V34.9c0-0.9-0.8-1.6-1.7-1.6c-0.4,0-0.7,0.2-1,0.4
		c-0.3,0.3-0.5,0.7-0.4,1.1V69c0,0.8,0.6,1.5,1.4,1.6c0,0,0.1,0,0.1,0C329.6,70.6,330.1,70.5,330.4,70.2z"/>
</g>
<path d="M371.2,86.6c0.3,0.3,0.7,0.4,1.1,0.4c0.8,0.1,1.5-0.5,1.6-1.2c0-0.1,0-0.2,0-0.3V51.6c0-3.3-0.9-6.6-2.6-9.5
	c-1.6-2.8-4-5.1-6.8-6.7c-6-3.2-13.3-3.2-19.3,0.1c-2.9,1.6-5.2,4-6.8,6.8c-3.3,6-3.3,13.4,0,19.4c1.6,2.9,4,5.2,6.8,6.8
	c3,1.7,6.3,2.5,9.7,2.5c3,0,6-0.7,8.7-2.1c2.5-1.3,4.6-3.3,6.1-5.7l1-1.6v23.7C370.8,85.9,370.9,86.3,371.2,86.6z M368.8,60.3
	c-1.3,2.4-3.3,4.4-5.7,5.8c-5,2.8-11.2,2.8-16.2,0c-2.4-1.4-4.4-3.4-5.7-5.8c-2.8-5.1-2.8-11.4,0-16.5c4.5-7.6,14.3-10.2,22-5.8
	c2.4,1.4,4.4,3.4,5.7,5.8C371.5,48.9,371.5,55.1,368.8,60.3L368.8,60.3z"/>
<path d="M451.1,52.4c0.3-0.3,0.4-0.7,0.4-1c0.1-3.3-0.7-6.5-2.2-9.5c-1.4-2.7-3.5-4.9-6.1-6.5c-2.7-1.6-5.7-2.4-8.9-2.3
	c-3.2-0.1-6.3,0.8-9.1,2.4c-2.6,1.6-4.8,3.9-6.2,6.7c-1.5,3.1-2.3,6.5-2.2,9.9c-0.1,3.4,0.8,6.8,2.4,9.8c1.5,2.8,3.8,5.1,6.6,6.7
	c2.9,1.6,6.2,2.5,9.6,2.4c2.3,0,4.6-0.5,6.7-1.3c2.1-0.7,4-1.8,5.7-3.3c0.3-0.2,0.4-0.6,0.5-0.9c0-0.4-0.2-0.8-0.6-1.1
	c-0.6-0.4-1.5-0.4-2,0.1c-1.3,1.2-2.9,2.1-4.5,2.6c-1.8,0.6-3.7,1-5.7,1c-2.7,0-5.3-0.6-7.6-1.9c-2.3-1.2-4.1-3.1-5.5-5.3
	c-1.4-2.3-2.1-4.9-2.2-7.6l0-0.6H450C450.4,52.8,450.8,52.6,451.1,52.4z M420.1,50.2l0.1-0.6c0.3-3.7,2-7.3,4.6-9.9
	c2.6-2.5,6-3.9,9.6-3.8c3.6-0.1,7.2,1.3,9.8,3.8c2.6,2.7,4.2,6.2,4.4,9.9l0,0.6L420.1,50.2z"/>
<path d="M204,34c-0.2-0.3-0.6-0.6-1-0.6c-1.2-0.2-2.4-0.3-3.6-0.3c-8.8-0.1-16.1,7-16.2,15.8c0,0.1,0,0.2,0,0.3V69
	c0,0.8,0.6,1.5,1.4,1.6l0,0c0,0,0.1,0,0.1,0c0.4,0,0.8-0.1,1.1-0.4c0.3-0.3,0.4-0.7,0.4-1.1l0-20.3c0.1-7.2,6-12.9,13.2-12.8
	c1,0,2,0.1,3,0.4c0.8,0.2,1.6-0.4,1.7-1.2C204.3,34.7,204.2,34.3,204,34L204,34z"/>
<path d="M256,70.2c0.3,0.3,0.7,0.5,1.1,0.4c0.4,0,0.8-0.1,1.1-0.4c0.3-0.3,0.4-0.7,0.4-1.1V48.8c0-2.9-0.6-5.7-1.8-8.3
	c-1.1-2.3-2.8-4.2-4.9-5.6c-2.2-1.4-4.7-2.1-7.2-2c-2.6,0-5.1,0.6-7.3,1.9c-2.1,1.3-3.9,3.1-5.1,5.3L232,41l-0.5-0.9
	c-1.1-2.2-2.8-4-4.9-5.3c-2.2-1.3-4.6-1.9-7.1-1.9l-0.4,0c-3.1,0.1-6,1.2-8.4,3.2c-3.6,3.1-5.7,7.6-5.7,12.3l0,20.6
	c0,0.8,0.6,1.5,1.4,1.6c0,0,0.1,0,0.1,0c0.4,0,0.8-0.1,1.1-0.4c0.3-0.3,0.4-0.7,0.4-1.1l0-20.6c0-3.8,1.6-7.5,4.5-9.9
	c1.9-1.5,4.1-2.4,6.5-2.5l0.4,0c3-0.1,5.9,1.3,7.8,3.6c2.1,2.6,3.1,5.9,3,9.2V69c0,0.9,0.8,1.6,1.7,1.6c0.4,0,0.8-0.2,1-0.4
	c0.3-0.3,0.4-0.7,0.4-1.1V48.3c-0.2-3.3,0.8-6.5,3-8.9c2.2-2.3,5.2-3.5,8.3-3.4c3-0.1,5.9,1.3,7.8,3.6c2.1,2.6,3.1,5.9,3,9.2V69
	C255.6,69.5,255.7,69.9,256,70.2z"/>
<path d="M381.4,33.8c-0.6-0.6-1.6-0.6-2.2,0c-0.3,0.3-0.5,0.7-0.5,1.2v18.8c-0.1,3.3,0.7,6.5,2.2,9.4c1.4,2.5,3.5,4.6,6.1,5.9
	c5.6,2.7,12.2,2.7,17.8,0c2.6-1.3,4.7-3.4,6.1-5.9c1.5-2.9,2.3-6.1,2.2-9.4V34.9c0-0.4-0.1-0.8-0.4-1.1l0,0c-0.6-0.6-1.6-0.6-2.2,0
	c-0.3,0.3-0.5,0.7-0.5,1.2v18.8c0,4.6-1.3,8.1-3.9,10.5c-5.9,4.9-14.4,4.9-20.3,0c-2.6-2.4-3.9-6-3.9-10.5V34.9
	C381.8,34.5,381.7,34.1,381.4,33.8z"/>
<path d="M120.3,42.9c-1.6-2.9-4-5.3-6.9-6.9h0c-6.1-3.4-13.6-3.4-19.7,0c-2.9,1.6-5.3,4-6.9,6.9c-1.7,3-2.5,6.3-2.5,9.8h0
	c0,2.9-0.7,5.8-2.1,8.3c-1.4,2.5-3.4,4.5-5.8,5.9c-5.1,2.8-11.3,2.8-16.5,0c-2.4-1.4-4.4-3.4-5.8-5.9c-2.8-5.2-2.8-11.5,0-16.7
	c4.5-7.7,14.5-10.4,22.3-5.9l0.4,0.2c0.7,0.4,1.7,0.1,2-0.7s0.1-1.7-0.7-2L78,35.8h0c-6.1-3.4-13.6-3.4-19.7,0
	c-2.9,1.6-5.3,4-6.9,6.9c-3.4,6.1-3.4,13.6,0,19.7c1.6,2.9,4,5.3,6.9,6.9c6.1,3.4,13.6,3.4,19.7,0c2.9-1.6,5.3-4,6.9-6.9
	c0.3-0.6,0.6-1.2,0.9-1.8c0.3,0.7,0.6,1.3,1,2c1.6,2.9,4,5.3,6.9,6.9c6.1,3.4,13.6,3.4,19.7,0c2.9-1.6,5.3-4,6.9-6.9
	C123.7,56.5,123.7,49.1,120.3,42.9L120.3,42.9z M117.5,61.2c-1.4,2.5-3.4,4.5-5.8,5.9c-5.1,2.8-11.3,2.8-16.5,0
	c-2.4-1.4-4.4-3.4-5.8-5.9c-2.8-5.2-2.8-11.5,0-16.7c4.5-7.7,14.5-10.4,22.3-5.9c2.4,1.4,4.4,3.5,5.8,5.9
	C120.3,49.7,120.3,55.9,117.5,61.2L117.5,61.2z"/>
</svg>
